<?xml version="1.0" standalone="no"?>
<!DOCTYPE svg PUBLIC "-//W3C//DTD SVG 20010904//EN"
 "http://www.w3.org/TR/2001/REC-SVG-20010904/DTD/svg10.dtd">
<svg version="1.0" xmlns="http://www.w3.org/2000/svg"
 width="512.000000pt" height="512.000000pt" viewBox="0 0 512.000000 512.000000"
 preserveAspectRatio="xMidYMid meet">

<g transform="translate(0.000000,512.000000) scale(0.100000,-0.100000)"
fill="#000000" stroke="none">
<path d="M2796 5098 c-13 -13 -57 -95 -97 -183 -39 -88 -72 -161 -73 -161 0
-1 -68 -9 -151 -18 -210 -23 -225 -26 -246 -47 -12 -12 -19 -33 -19 -56 0 -34
8 -44 92 -122 51 -47 114 -106 140 -131 l48 -45 -37 -187 -37 -187 20 -28 c39
-52 71 -45 245 53 85 48 159 87 165 87 5 0 79 -39 164 -87 172 -98 205 -105
244 -53 l20 28 -37 187 -37 187 43 40 c23 22 86 81 140 130 89 83 97 94 97
128 0 23 -7 44 -19 56 -21 21 -36 24 -246 47 -82 9 -151 17 -151 18 -1 0 -34
73 -74 161 -72 163 -102 205 -145 205 -13 0 -35 -10 -49 -22z m105 -372 c24
-54 53 -105 64 -112 11 -7 71 -18 133 -25 61 -7 112 -15 112 -19 0 -4 -38 -42
-84 -84 -47 -42 -88 -86 -91 -96 -3 -11 4 -69 16 -130 12 -61 20 -113 17 -115
-2 -3 -49 20 -104 50 -54 30 -108 55 -119 55 -11 0 -65 -25 -119 -55 -55 -30
-102 -55 -106 -55 -4 0 3 48 16 108 13 59 21 119 18 134 -3 18 -36 55 -90 104
-46 42 -84 80 -84 84 0 4 50 12 112 19 61 6 120 17 130 22 17 9 75 121 109
208 12 31 17 25 70 -93z"/>
<path d="M1717 4748 c-9 -7 -50 -87 -92 -177 -41 -91 -78 -167 -81 -170 -3 -3
-89 -15 -191 -27 -167 -19 -189 -24 -205 -44 -18 -22 -24 -76 -10 -95 4 -6 41
-42 82 -80 41 -38 101 -93 133 -123 l58 -54 -36 -177 c-19 -97 -35 -184 -35
-194 0 -27 45 -67 76 -67 15 0 94 38 186 90 87 50 160 90 163 90 3 0 76 -40
163 -90 92 -52 171 -90 186 -90 34 0 76 41 76 74 0 14 -16 101 -35 193 l-36
168 63 60 c35 33 98 92 141 132 67 63 77 76 77 106 0 69 -17 77 -206 98 -93
11 -178 22 -190 24 -16 4 -39 44 -99 175 -43 94 -86 175 -96 181 -25 13 -72
11 -92 -3z m133 -448 c0 -5 13 -19 29 -32 24 -21 48 -27 146 -38 l117 -13 -90
-84 c-50 -46 -93 -92 -96 -101 -4 -10 5 -71 18 -135 13 -64 21 -117 19 -117
-3 0 -49 25 -102 55 -54 30 -110 55 -125 55 -15 0 -72 -25 -126 -55 -54 -30
-100 -55 -103 -55 -2 0 6 53 19 117 13 64 22 125 19 134 -4 10 -46 56 -95 102
l-90 84 108 12 c150 17 153 19 197 109 20 42 44 95 53 116 l16 40 43 -93 c24
-52 43 -97 43 -101z"/>
<path d="M3879 4750 c-9 -5 -51 -86 -94 -180 -60 -131 -83 -171 -99 -175 -12
-2 -96 -13 -189 -23 -191 -22 -207 -29 -207 -94 0 -36 6 -45 77 -111 43 -40
106 -99 140 -132 l63 -60 -35 -168 c-19 -93 -35 -179 -35 -193 0 -33 42 -74
76 -74 15 0 95 39 185 90 88 50 161 90 163 90 2 0 76 -40 164 -90 90 -51 171
-90 186 -90 31 0 76 40 76 68 0 10 -16 97 -35 193 l-36 174 69 65 c37 36 100
96 140 134 61 58 72 74 72 101 0 18 -8 43 -18 55 -16 20 -38 25 -205 44 -102
12 -189 24 -192 28 -3 3 -39 79 -81 168 -41 90 -83 169 -92 176 -20 16 -70 17
-93 4z m125 -431 c32 -68 43 -74 189 -90 l108 -12 -91 -84 c-49 -47 -92 -94
-95 -106 -3 -12 5 -73 18 -135 13 -61 22 -112 19 -112 -2 0 -48 25 -101 55
-56 31 -110 55 -126 55 -16 0 -70 -24 -126 -55 -53 -30 -99 -55 -102 -55 -2 0
6 52 19 115 16 79 21 123 15 138 -5 13 -48 60 -96 104 l-87 80 118 14 c144 16
153 22 215 163 l44 98 26 -58 c14 -33 38 -84 53 -115z"/>
<path d="M2627 3785 c-44 -15 -74 -40 -92 -75 -8 -16 -14 -97 -18 -230 -8
-242 -26 -401 -67 -565 -96 -389 -291 -666 -598 -853 -60 -37 -72 -39 -72 -13
0 10 -9 30 -21 45 l-20 26 -648 0 c-638 0 -648 0 -669 -20 l-22 -21 0 -1004
c0 -552 3 -1011 6 -1020 17 -44 28 -45 678 -45 401 0 624 4 642 10 34 13 53
38 54 68 0 12 5 22 12 22 6 0 83 -25 171 -56 l160 -55 942 10 943 10 53 27
c74 37 159 125 197 204 35 73 57 183 49 241 -5 39 -4 40 49 74 131 84 188 246
151 434 l-15 75 54 49 c141 129 171 357 65 505 l-19 27 39 64 c59 98 82 165
87 256 3 65 0 91 -18 139 -45 119 -181 217 -395 283 l-90 28 -295 -2 c-162 -1
-391 -8 -507 -15 -117 -7 -213 -11 -213 -8 0 3 8 57 17 120 23 161 24 770 0
877 -43 196 -167 321 -369 372 -108 27 -177 32 -221 16z m218 -182 c59 -19 89
-36 133 -77 76 -70 90 -132 98 -443 7 -265 -4 -465 -37 -665 -20 -119 -20
-130 -5 -153 9 -13 28 -28 41 -31 14 -3 148 1 298 11 149 9 387 19 527 22 254
5 255 5 345 -22 162 -47 265 -107 301 -176 7 -15 14 -52 14 -81 0 -63 -43
-161 -109 -248 -53 -70 -54 -105 -6 -159 47 -52 68 -105 67 -173 0 -77 -40
-151 -102 -189 -104 -64 -106 -69 -77 -169 26 -87 28 -233 4 -277 -22 -41 -83
-91 -129 -105 -21 -6 -47 -22 -59 -35 -22 -22 -22 -25 -10 -102 21 -131 -8
-223 -98 -303 l-51 -46 -282 -6 c-156 -3 -570 -8 -921 -11 l-637 -6 -158 54
c-86 31 -169 60 -184 66 l-28 11 0 779 0 780 83 39 c172 82 365 249 492 427
212 297 324 725 325 1236 l0 86 58 -9 c31 -5 80 -16 107 -25z m-1225 -2538 l0
-895 -530 0 -530 0 0 895 0 895 530 0 530 0 0 -895z"/>
<path d="M760 1888 c-26 -14 -57 -41 -75 -66 -26 -37 -30 -53 -30 -107 0 -54
4 -70 30 -107 111 -160 356 -87 356 107 0 148 -149 239 -281 173z m115 -173
c0 -25 -4 -30 -24 -30 -32 0 -49 28 -31 50 7 9 23 15 34 13 16 -2 21 -10 21
-33z"/>
</g>
</svg>
